<svg xmlns="http://www.w3.org/2000/svg" viewBox="0 0 512 512">
  <defs>
    <linearGradient id="bg" x1="0" y1="0" x2="1" y2="1">
      <stop offset="0" stop-color="#4c278e"/>
      <stop offset="1" stop-color="#09051f"/>
    </linearGradient>
    <linearGradient id="star" x1="0" y1="0" x2="1" y2="1">
      <stop offset="0" stop-color="#ffe778"/>
      <stop offset="1" stop-color="#ff72d2"/>
    </linearGradient>
  </defs>
  <rect width="512" height="512" rx="112" fill="url(#bg)"/>
  <circle cx="374" cy="127" r="67" fill="#fff0b1" opacity=".95"/>
  <circle cx="349" cy="105" r="66" fill="#4c278e"/>
  <g fill="#fff" opacity=".9">
    <circle cx="95" cy="91" r="7"/>
    <circle cx="168" cy="60" r="5"/>
    <circle cx="422" cy="235" r="6"/>
    <circle cx="76" cy="252" r="5"/>
  </g>
  <path d="M256 105l33 67 74 11-54 52 13 74-66-35-66 35 13-74-54-52 74-11z" fill="url(#star)" stroke="#fff" stroke-width="10" stroke-linejoin="round"/>
  <path d="M181 389c22-44 54-67 75-67s53 23 75 67" fill="none" stroke="#9edfff" stroke-width="24" stroke-linecap="round"/>
  <circle cx="256" cy="318" r="28" fill="#f2ad78"/>
  <path d="M230 310c10-30 44-31 54 0-14-8-39-8-54 0z" fill="#2d1934"/>
  <path d="M239 348l-23 45m57-45l23 45" stroke="#4c8eff" stroke-width="20" stroke-linecap="round"/>
  <path d="M238 384l-29 41m65-41l29 41" stroke="#303063" stroke-width="18" stroke-linecap="round"/>
</svg>
